<svg width="20" height="20" viewBox="0 0 20 20"  xmlns="http://www.w3.org/2000/svg" id="alert">
<path fill-rule="evenodd" clip-rule="evenodd" d="M15.303 14H17V15H15.3366H14.6544H14.4814H14.4808H5.51921H5.51858H5.34556H4.66341H3V14H4.69697L6.02248 7.27049C6.39679 5.37012 8.06312 4 10 4C11.9369 4 13.6032 5.37012 13.9775 7.27049L15.303 14ZM5.71618 14H14.2838L12.9964 7.46375C12.7144 6.03215 11.4591 5 10 5C8.54089 5 7.28561 6.03215 7.00363 7.46375L5.71618 14ZM12 16C12 16.5523 11.5523 17 11 17H9C8.44772 17 8 16.5523 8 16H12Z" fill="currentColor"/>
</svg>
