<svg width="20" height="20" viewBox="0 0 20 20"  xmlns="http://www.w3.org/2000/svg" id="edit-default">
<path fill-rule="evenodd" clip-rule="evenodd" d="M14.5182 3.4318C13.9425 2.85607 13.009 2.85607 12.4333 3.4318L4.2826 11.5825L4.18142 11.6836L4.15037 11.8233L3.16752 16.2462L3 17L3.75385 16.8325L8.17667 15.8496L8.31637 15.8186L8.41756 15.7174L16.5682 7.56675C17.144 6.99101 17.144 6.05755 16.5682 5.48181L14.5182 3.4318ZM13.1283 4.12678C13.3202 3.93487 13.6313 3.93487 13.8232 4.12678L15.8732 6.17679C16.0652 6.36871 16.0652 6.67986 15.8732 6.87177L15.1958 7.54925L12.4508 4.80426L13.1283 4.12678ZM11.7558 5.49924L5.07877 12.1762L4.29449 15.7055L7.82377 14.9212L14.5008 8.24423L11.7558 5.49924Z" fill="currentColor"/>
</svg>
