<svg width="20" height="20" viewBox="0 0 20 20"  xmlns="http://www.w3.org/2000/svg" id="ellipsis">
<path fill-rule="evenodd" clip-rule="evenodd" d="M5 9C5.19778 9 5.39112 9.05865 5.55557 9.16853C5.72002 9.27841 5.84819 9.43459 5.92388 9.61732C5.99957 9.80004 6.01937 10.0011 5.98079 10.1951C5.9422 10.3891 5.84696 10.5673 5.70711 10.7071C5.56725 10.847 5.38907 10.9422 5.19509 10.9808C5.00111 11.0194 4.80004 10.9996 4.61732 10.9239C4.43459 10.8482 4.27841 10.72 4.16853 10.5556C4.05865 10.3911 4 10.1978 4 10C4 9.73478 4.10536 9.48043 4.29289 9.29289C4.48043 9.10536 4.73478 9 5 9ZM10 9C10.1978 9 10.3911 9.05865 10.5556 9.16853C10.72 9.27841 10.8482 9.43459 10.9239 9.61732C10.9996 9.80004 11.0194 10.0011 10.9808 10.1951C10.9422 10.3891 10.847 10.5673 10.7071 10.7071C10.5673 10.847 10.3891 10.9422 10.1951 10.9808C10.0011 11.0194 9.80004 10.9996 9.61732 10.9239C9.43459 10.8482 9.27841 10.72 9.16853 10.5556C9.05865 10.3911 9 10.1978 9 10C9 9.73478 9.10536 9.48043 9.29289 9.29289C9.48043 9.10536 9.73478 9 10 9ZM15 9C15.1978 9 15.3911 9.05865 15.5556 9.16853C15.72 9.27841 15.8482 9.43459 15.9239 9.61732C15.9996 9.80004 16.0194 10.0011 15.9808 10.1951C15.9422 10.3891 15.847 10.5673 15.7071 10.7071C15.5673 10.847 15.3891 10.9422 15.1951 10.9808C15.0011 11.0194 14.8 10.9996 14.6173 10.9239C14.4346 10.8482 14.2784 10.72 14.1685 10.5556C14.0586 10.3911 14 10.1978 14 10C14 9.73478 14.1054 9.48043 14.2929 9.29289C14.4804 9.10536 14.7348 9 15 9Z" fill="currentColor"/>
</svg>
