<svg width="20" height="20" viewBox="0 0 20 20" fill="none" xmlns="http://www.w3.org/2000/svg">
<path fill-rule="evenodd" clip-rule="evenodd" d="M11.7316 7.92855L10.0001 3.89955L8.26856 7.92774L3.88295 8.29813L7.2091 11.1312L6.20593 15.3729L10.0005 13.1231L13.7951 15.3729L12.7919 11.1312L16.1172 8.29894L11.7316 7.92855ZM17.6238 7.42262C17.9852 7.4533 18.1322 7.89657 17.8579 8.12992L13.9058 11.496L15.0901 16.5036C15.1722 16.8516 14.7887 17.1254 14.4782 16.9405L14.1149 16.7251L10.0005 14.2857L5.87498 16.7316L5.52279 16.9405C5.21151 17.1245 4.82879 16.8508 4.91092 16.5036L6.09523 11.496L2.14232 8.12911C1.868 7.89576 2.01419 7.45249 2.37639 7.42181L7.58671 6.98177L9.62189 2.24707C9.76316 1.91764 10.237 1.91764 10.3783 2.24707L12.4135 6.98258L17.6238 7.42262Z" fill="currentColor"/>
</svg>
