<svg width="20" height="20" viewBox="0 0 20 20"  xmlns="http://www.w3.org/2000/svg" id="help">
<path fill-rule="evenodd" clip-rule="evenodd" d="M3 9.5C3 5.91015 5.91015 3 9.5 3C13.0899 3 16 5.91015 16 9.5C16 13.0899 13.0899 16 9.5 16C5.91015 16 3 13.0899 3 9.5ZM2 9.5C2 5.35786 5.35786 2 9.5 2C13.6421 2 17 5.35787 17 9.5C17 13.6421 13.6421 17 9.5 17C5.35786 17 2 13.6421 2 9.5ZM9.54297 5.34207C8.94861 5.34207 8.46313 5.52115 8.09729 5.88699C7.58997 6.39432 7.33752 7.03641 7.33752 7.80533V7.9053H8.52576V7.80533C8.52576 7.24783 8.66516 6.84805 8.92615 6.58694C9.07812 6.43509 9.26697 6.35843 9.5 6.35843C9.79675 6.35843 10.0117 6.439 10.1598 6.58694C10.335 6.76212 10.4313 7.03299 10.4313 7.41861C10.4313 7.70633 10.3279 7.95328 10.1168 8.16434C9.7135 8.56778 9.4342 8.89151 9.28662 9.12698C9.07117 9.46573 8.97034 9.96097 8.97034 10.5983V10.6983H9.94373V10.5983C9.94373 10.0981 10.0687 9.74136 10.3011 9.50882L11.1176 8.69241C11.4801 8.32999 11.6625 7.88907 11.6625 7.37564C11.6625 6.77884 11.4675 6.27982 11.0746 5.88699C10.707 5.51944 10.1915 5.34207 9.54297 5.34207ZM10.0297 11.7444H8.8844V12.9756H10.0297V11.7444Z" fill="currentColor"/>
</svg>
