<svg width="20" height="20" viewBox="0 0 20 20"  xmlns="http://www.w3.org/2000/svg" id="lock-locked">
<path fill-rule="evenodd" clip-rule="evenodd" d="M15 18H6C5.46957 18 4.96086 17.7893 4.58579 17.4142C4.21071 17.0391 4 16.5304 4 16V9C4 8.46957 4.21071 7.96086 4.58579 7.58579C4.96086 7.21071 5.46957 7 6 7H15C15.5304 7 16.0391 7.21071 16.4142 7.58579C16.7893 7.96086 17 8.46957 17 9V16C17 16.5304 16.7893 17.0391 16.4142 17.4142C16.0391 17.7893 15.5304 18 15 18ZM16 9C16 8.73478 15.8946 8.48043 15.7071 8.29289C15.5196 8.10536 15.2652 8 15 8H6C5.73478 8 5.48043 8.10536 5.29289 8.29289C5.10536 8.48043 5 8.73478 5 9V16C5 16.2652 5.10536 16.5196 5.29289 16.7071C5.48043 16.8946 5.73478 17 6 17H15C15.2652 17 15.5196 16.8946 15.7071 16.7071C15.8946 16.5196 16 16.2652 16 16V9ZM10 11H11V14H10V11ZM13 7V5.5C13 4.83696 12.7366 4.20107 12.2678 3.73223C11.7989 3.26339 11.163 3 10.5 3C9.83696 3 9.20107 3.26339 8.73223 3.73223C8.26339 4.20107 8 4.83696 8 5.5V7H7V5.5C7 5.04037 7.09053 4.58525 7.26642 4.16061C7.44231 3.73597 7.70012 3.35013 8.02513 3.02513C8.35013 2.70012 8.73597 2.44231 9.16061 2.26642C9.58525 2.09053 10.0404 2 10.5 2C10.9596 2 11.4148 2.09053 11.8394 2.26642C12.264 2.44231 12.6499 2.70012 12.9749 3.02513C13.2999 3.35013 13.5577 3.73597 13.7336 4.16061C13.9095 4.58525 14 5.04037 14 5.5V7H13Z" fill="currentColor"/>
</svg>
