<svg width="20" height="20" viewBox="0 0 20 20"  xmlns="http://www.w3.org/2000/svg" id="search">
<path fill-rule="evenodd" clip-rule="evenodd" d="M16.0075 8.5C16.0075 11.5376 13.5451 14 10.5075 14C9.16875 14 7.94172 13.5217 6.98797 12.7266L3.36104 16.3536L2.65393 15.6465L6.28087 12.0195C5.48582 11.0658 5.00751 9.83874 5.00751 8.5C5.00751 5.46243 7.46994 3 10.5075 3C13.5451 3 16.0075 5.46243 16.0075 8.5ZM15.0075 8.5C15.0075 10.9853 12.9928 13 10.5075 13C8.02223 13 6.00751 10.9853 6.00751 8.5C6.00751 6.01472 8.02223 4 10.5075 4C12.9928 4 15.0075 6.01472 15.0075 8.5Z" fill="currentColor"/>
</svg>
