<svg width="20" height="20" viewBox="0 0 20 20"  xmlns="http://www.w3.org/2000/svg" id="settings-default">
<path d="M17.6774 7.05226C17.8803 7.54809 17.4997 8.06165 17.0547 8.36002C16.5079 8.72667 16.1599 9.33455 16.1599 9.99997C16.1599 10.6654 16.5079 11.2733 17.0547 11.6399C17.4997 11.9383 17.8803 12.4519 17.6774 12.9477C16.244 12.6851 15.1599 11.4652 15.1599 9.99997C15.1599 8.53471 16.244 7.3148 17.6774 7.05226Z" fill="currentColor"/>
<path d="M11.1798 2.08106C11.0837 2.37066 11.0319 2.67944 11.0319 2.99997C11.0319 4.65683 12.418 5.99997 14.1279 5.99997C15.0475 5.99997 15.8735 5.61143 16.4406 4.99452C16.0917 4.57358 15.4518 4.63875 14.9448 4.84336C14.6957 4.94392 14.4202 4.99997 14.1279 4.99997C12.9404 4.99997 12.0319 4.07508 12.0319 2.99997C12.0319 2.60843 11.8377 2.18963 11.4518 2.12329C11.3616 2.10779 11.271 2.0937 11.1798 2.08106Z" fill="currentColor"/>
<path d="M3.55909 4.99449C4.12614 5.61142 4.95215 5.99997 5.87182 5.99997C7.58171 5.99997 8.96785 4.65683 8.96785 2.99997C8.96785 2.67944 8.91597 2.37065 8.81991 2.08105C8.72875 2.09369 8.63808 2.10778 8.54792 2.12328C8.16203 2.18961 7.96785 2.60842 7.96785 2.99997C7.96785 4.07508 7.05936 4.99997 5.87182 4.99997C5.57945 4.99997 5.304 4.94391 5.05485 4.84335C4.54788 4.63873 3.90795 4.57355 3.55909 4.99449Z" fill="currentColor"/>
<path d="M2.32227 7.05226C3.75566 7.31479 4.83978 8.5347 4.83978 9.99997C4.83978 11.4652 3.75566 12.6852 2.32227 12.9477C2.11935 12.4519 2.49995 11.9383 2.94492 11.6399C3.49174 11.2733 3.83978 10.6654 3.83978 9.99997C3.83978 9.33454 3.49174 8.72666 2.94492 8.36001C2.49995 8.06164 2.11935 7.54808 2.32227 7.05226Z" fill="currentColor"/>
<path d="M8.81991 17.9189C8.91597 17.6293 8.96785 17.3205 8.96785 17C8.96785 15.3431 7.58171 14 5.87182 14C4.95215 14 4.12615 14.3885 3.55909 15.0055C3.90795 15.4264 4.54788 15.3612 5.05486 15.1566C5.304 15.056 5.57945 15 5.87182 15C7.05936 15 7.96785 15.9249 7.96785 17C7.96785 17.3915 8.16203 17.8103 8.54792 17.8767C8.63808 17.8922 8.72875 17.9062 8.81991 17.9189Z" fill="currentColor"/>
<path d="M16.4406 15.0054C15.8735 14.3885 15.0475 14 14.1279 14C12.418 14 11.0319 15.3431 11.0319 17C11.0319 17.3205 11.0837 17.6293 11.1798 17.9189C11.271 17.9062 11.3616 17.8922 11.4518 17.8767C11.8377 17.8103 12.0319 17.3915 12.0319 17C12.0319 15.9249 12.9404 15 14.1279 15C14.4202 15 14.6957 15.056 14.9448 15.1566C15.4518 15.3612 16.0917 15.4264 16.4406 15.0054Z" fill="currentColor"/>
<path d="M8.96702 3.07009C9.30405 3.02391 9.64884 3 9.99982 3C10.3508 3 10.6956 3.02391 11.0327 3.0701C11.0321 3.0468 11.0319 3.0234 11.0319 2.99997C11.0319 2.67944 11.0837 2.37066 11.1798 2.08106C10.7944 2.02762 10.4005 2 9.99982 2C9.59921 2 9.20527 2.02762 8.81991 2.08105C8.91597 2.37065 8.96785 2.67944 8.96785 2.99997C8.96785 3.0234 8.96757 3.04679 8.96702 3.07009Z" fill="currentColor"/>
<path d="M16.4406 4.99452C16.2153 5.23961 15.9491 5.44869 15.6525 5.61165C16.0979 6.1456 16.4635 6.74341 16.7326 7.38768C17.0217 7.229 17.3399 7.11408 17.6774 7.05226C17.3713 6.30441 16.9523 5.6119 16.4406 4.99452Z" fill="currentColor"/>
<path d="M17.6774 12.9477C17.3399 12.8859 17.0217 12.771 16.7326 12.6123C16.4635 13.2566 16.0979 13.8544 15.6525 14.3883C15.9491 14.5513 16.2153 14.7603 16.4406 15.0054C16.9523 14.388 17.3713 13.6955 17.6774 12.9477Z" fill="currentColor"/>
<path d="M11.1798 17.9189C11.0837 17.6293 11.0319 17.3205 11.0319 17C11.0319 16.9765 11.0321 16.9532 11.0327 16.9299C10.6956 16.9761 10.3508 17 9.99982 17C9.64884 17 9.30405 16.9761 8.96702 16.9299C8.96757 16.9532 8.96785 16.9765 8.96785 17C8.96785 17.3205 8.91597 17.6293 8.81991 17.9189C9.20527 17.9723 9.59921 18 9.99982 18C10.4005 18 10.7944 17.9723 11.1798 17.9189Z" fill="currentColor"/>
<path d="M3.55909 15.0055C3.78437 14.7604 4.05052 14.5513 4.34718 14.3884C3.90174 13.8544 3.53612 13.2566 3.26709 12.6123C2.97791 12.771 2.65977 12.8859 2.32227 12.9477C2.62834 13.6955 3.04741 14.3881 3.55909 15.0055Z" fill="currentColor"/>
<path d="M2.32227 7.05226C2.65977 7.11407 2.97791 7.22899 3.26709 7.38766C3.53612 6.74339 3.90174 6.14558 4.34718 5.61162C4.05052 5.44866 3.78437 5.23959 3.55909 4.99449C3.04741 5.61188 2.62834 6.3044 2.32227 7.05226Z" fill="currentColor"/>
<path fill-rule="evenodd" clip-rule="evenodd" d="M9.99981 13C11.6621 13 13.0638 11.6863 13.0638 10C13.0638 8.31368 11.6621 7 9.99981 7C8.33754 7 6.9358 8.31368 6.9358 10C6.9358 11.6863 8.33754 13 9.99981 13ZM9.99981 12C11.1397 12 12.0638 11.1046 12.0638 10C12.0638 8.89543 11.1397 8 9.99981 8C8.85989 8 7.9358 8.89543 7.9358 10C7.9358 11.1046 8.85989 12 9.99981 12Z" fill="currentColor"/>
</svg>
