<svg width="20" height="20" viewBox="0 0 20 20"  xmlns="http://www.w3.org/2000/svg" id="status-failed">
<path fill-rule="evenodd" clip-rule="evenodd" d="M16 9.5C16 13.0899 13.0899 16 9.5 16C5.91015 16 3 13.0899 3 9.5C3 5.91015 5.91015 3 9.5 3C13.0899 3 16 5.91015 16 9.5ZM17 9.5C17 13.6421 13.6421 17 9.5 17C5.35786 17 2 13.6421 2 9.5C2 5.35786 5.35786 2 9.5 2C13.6421 2 17 5.35786 17 9.5ZM11.7566 12.5L9.5 10.2434L7.2434 12.5L6.5 11.7566L8.7566 9.5L6.5 7.2434L7.2434 6.5L9.5 8.7566L11.7566 6.5L12.5 7.2434L10.2434 9.5L12.5 11.7566L11.7566 12.5Z" fill="currentColor"/>
</svg>
