<svg width="20" height="20" viewBox="0 0 20 20"  xmlns="http://www.w3.org/2000/svg" id="status-completed">
<path fill-rule="evenodd" clip-rule="evenodd" d="M16 9.5C16 13.0899 13.0899 16 9.5 16C5.91015 16 3 13.0899 3 9.5C3 5.91015 5.91015 3 9.5 3C13.0899 3 16 5.91015 16 9.5ZM17 9.5C17 13.6421 13.6421 17 9.5 17C5.35786 17 2 13.6421 2 9.5C2 5.35786 5.35786 2 9.5 2C13.6421 2 17 5.35786 17 9.5ZM8.95121 12.0087L12.9512 8.00867L12.2441 7.30157L8.59766 10.948L6.95121 9.30157L6.2441 10.0087L8.2441 12.0087L8.59766 12.3622L8.95121 12.0087Z" fill="currentColor"/>
</svg>
