<svg width="20" height="20" viewBox="0 0 20 20"  xmlns="http://www.w3.org/2000/svg" id="user-default">
<path fill-rule="evenodd" clip-rule="evenodd" d="M16.3415 16L16.681 15.6673C16.0247 14.8656 15.2136 14.1969 14.2917 13.7022C13.1278 13.0776 11.8246 12.7503 10.5 12.7503C9.17542 12.7503 7.87217 13.0776 6.70832 13.7022C5.7864 14.1969 4.97525 14.8656 4.31895 15.6673L4.65853 16H16.3415ZM4.25029 17H16.7497L18 15.775C17.1861 14.5391 16.0741 13.5238 14.7645 12.821C13.455 12.1183 11.9892 11.7503 10.5 11.7503C9.01076 11.7503 7.54503 12.1183 6.23548 12.821C4.92592 13.5238 3.81388 14.5391 3 15.775L4.25029 17ZM10.5006 9.9999C11.4424 10.0049 12.3477 9.63893 13.0173 8.98258C13.6869 8.32622 14.0661 7.43318 14.0714 6.49985C14.0713 5.80925 13.8651 5.13409 13.4787 4.55937C13.0923 3.98466 12.543 3.53607 11.8999 3.27007C11.2567 3.00406 10.5486 2.93253 9.86457 3.06449C9.18053 3.19645 8.55116 3.52599 8.0557 4.01164C7.56024 4.49728 7.22084 5.11736 7.08021 5.79374C6.93957 6.47013 7.00399 7.17261 7.26537 7.8128C7.52674 8.45298 7.97338 9.00224 8.54907 9.39142C9.12475 9.7806 9.80375 9.9923 10.5006 9.9999ZM13.0714 6.49707C13.0668 7.16127 12.7967 7.79849 12.3173 8.26844C11.8375 8.73872 11.1872 9.00278 10.5086 8.99993C10.0081 8.99392 9.52123 8.84156 9.10913 8.56297C8.69634 8.28392 8.37744 7.89103 8.19117 7.43481C8.00495 6.97868 7.95918 6.47868 8.05927 5.99731C8.15937 5.51587 8.40119 5.07327 8.7557 4.72578C9.11032 4.37818 9.56188 4.14132 10.054 4.04639C10.5461 3.95145 11.0555 4.00299 11.5176 4.19414C11.9797 4.38526 12.3729 4.70695 12.6488 5.11733C12.9242 5.52681 13.0708 6.00678 13.0714 6.49707Z" fill="currentColor"/>
</svg>
