<svg width="20" height="20" viewBox="0 0 20 20"  xmlns="http://www.w3.org/2000/svg" id="view-close">
<path fill-rule="evenodd" clip-rule="evenodd" d="M15.6204 2.6748L3.62036 16.6748L4.37962 17.3256L6.31938 15.0625C7.4275 15.6301 8.66418 16.0002 10 16.0002C14.5 16.0002 17.875 11.8002 19 10.0002C18.3005 8.88102 16.7312 6.83401 14.5624 5.44563L16.3796 3.3256L15.6204 2.6748ZM13.9048 6.21294L12.3047 8.07962C12.7388 8.59996 13 9.26958 13 10.0002C13 11.6571 11.6569 13.0002 10 13.0002C9.43458 13.0002 8.9057 12.8438 8.45426 12.5718L6.99077 14.2793C7.92503 14.7256 8.93482 15.0002 10 15.0002C11.9322 15.0002 13.6821 14.0966 15.1296 12.9035C16.3002 11.9387 17.2169 10.8294 17.7994 10.0002C17.2169 9.17102 16.3002 8.06169 15.1296 7.09686C14.7422 6.77756 14.3332 6.47899 13.9048 6.21294ZM9.11907 11.7962C9.38485 11.9268 9.68386 12.0002 10 12.0002C11.1046 12.0002 12 11.1048 12 10.0002C12 9.57432 11.8669 9.17952 11.64 8.85516L9.11907 11.7962ZM8 10.0002C8 8.99954 8.73489 8.17052 9.6944 8.0234L10.5312 7.04709C10.3588 7.01628 10.1813 7.0002 10 7.0002C8.34315 7.0002 7 8.34334 7 10.0002C7 10.3422 7.05724 10.6709 7.16265 10.9771L8 10.0002ZM10 5.0002C10.6953 5.0002 11.3669 5.11719 12.0094 5.32257L12.7085 4.50694C11.8638 4.1903 10.9574 4.0002 10 4.0002C5.5 4.0002 2.125 8.2002 1 10.0002C1.60596 10.9697 2.86472 12.6356 4.60045 13.9663L5.25227 13.2059C5.12278 13.1075 4.99546 13.0066 4.87041 12.9035C3.69984 11.9387 2.78311 10.8294 2.2006 10.0002C2.78311 9.17102 3.69984 8.06169 4.87041 7.09686C6.31793 5.90375 8.06783 5.0002 10 5.0002Z" fill="currentColor"/>
</svg>
