<svg width="20" height="20" viewBox="0 0 20 20"  xmlns="http://www.w3.org/2000/svg" id="view-open">
<path fill-rule="evenodd" clip-rule="evenodd" d="M4.87041 12.9033C3.69984 11.9385 2.78311 10.8292 2.2006 10C2.78311 9.17082 3.69984 8.06149 4.87041 7.09666C6.31793 5.90355 8.06783 5 10 5C11.9322 5 13.6821 5.90355 15.1296 7.09666C16.3002 8.06149 17.2169 9.17082 17.7994 10C17.2169 10.8292 16.3002 11.9385 15.1296 12.9033C13.6821 14.0964 11.9322 15 10 15C8.06783 15 6.31793 14.0964 4.87041 12.9033ZM10 4C14.5 4 17.875 8.2 19 10C17.875 11.8 14.5 16 10 16C5.5 16 2.125 11.8 1 10C2.125 8.2 5.5 4 10 4ZM12 10C12 11.1046 11.1046 12 10 12C8.89543 12 8 11.1046 8 10C8 8.89543 8.89543 8 10 8C11.1046 8 12 8.89543 12 10ZM13 10C13 11.6569 11.6569 13 10 13C8.34315 13 7 11.6569 7 10C7 8.34315 8.34315 7 10 7C11.6569 7 13 8.34315 13 10Z" fill="currentColor"/>
</svg>
